<svg width="16" height="16" viewBox="0 0 16 16" fill="none" xmlns="http://www.w3.org/2000/svg">
<path d="M7.99998 1.33333C11.682 1.33333 14.6666 4.318 14.6666 8C14.6666 11.682 11.682 14.6667 7.99998 14.6667C4.31798 14.6667 1.33331 11.682 1.33331 8C1.33331 4.318 4.31798 1.33333 7.99998 1.33333ZM10.6666 7.33333H5.33331C5.1565 7.33333 4.98693 7.40357 4.86191 7.52859C4.73688 7.65362 4.66665 7.82319 4.66665 8C4.66665 8.17681 4.73688 8.34638 4.86191 8.4714C4.98693 8.59643 5.1565 8.66667 5.33331 8.66667H10.6666C10.8435 8.66667 11.013 8.59643 11.1381 8.4714C11.2631 8.34638 11.3333 8.17681 11.3333 8C11.3333 7.82319 11.2631 7.65362 11.1381 7.52859C11.013 7.40357 10.8435 7.33333 10.6666 7.33333Z" fill="black"/>
</svg>
