<svg width="15" height="15" viewBox="0 0 15 15" fill="none" xmlns="http://www.w3.org/2000/svg">
<path d="M7.49998 0.333313C11.182 0.333313 14.1666 3.31798 14.1666 6.99998C14.1666 10.682 11.182 13.6666 7.49998 13.6666C3.81798 13.6666 0.833313 10.682 0.833313 6.99998C0.833313 3.31798 3.81798 0.333313 7.49998 0.333313ZM6.16665 4.33331C6.00336 4.33333 5.84575 4.39328 5.72373 4.50179C5.60171 4.6103 5.52375 4.75981 5.50465 4.92198L5.49998 4.99998V8.99998C5.50017 9.1699 5.56523 9.33333 5.68188 9.45689C5.79852 9.58045 5.95795 9.6548 6.12758 9.66476C6.2972 9.67472 6.46423 9.61953 6.59453 9.51047C6.72484 9.40141 6.80858 9.24671 6.82865 9.07798L6.83331 8.99998V4.99998C6.83331 4.82317 6.76308 4.6536 6.63805 4.52858C6.51303 4.40355 6.34346 4.33331 6.16665 4.33331ZM8.83331 4.33331C8.6565 4.33331 8.48693 4.40355 8.36191 4.52858C8.23688 4.6536 8.16665 4.82317 8.16665 4.99998V8.99998C8.16665 9.17679 8.23688 9.34636 8.36191 9.47138C8.48693 9.59641 8.6565 9.66665 8.83331 9.66665C9.01012 9.66665 9.17969 9.59641 9.30472 9.47138C9.42974 9.34636 9.49998 9.17679 9.49998 8.99998V4.99998C9.49998 4.82317 9.42974 4.6536 9.30472 4.52858C9.17969 4.40355 9.01012 4.33331 8.83331 4.33331Z" fill="#FF9500"/>
</svg>
