<svg width="15" height="15" viewBox="0 0 15 15" fill="none" xmlns="http://www.w3.org/2000/svg">
<path d="M7.50001 0.333313C11.182 0.333313 14.1667 3.31798 14.1667 6.99998C14.1667 10.682 11.182 13.6666 7.50001 13.6666C3.81801 13.6666 0.833344 10.682 0.833344 6.99998C0.833344 3.31798 3.81801 0.333313 7.50001 0.333313ZM7.50001 3.66665C7.33672 3.66667 7.17912 3.72662 7.0571 3.83512C6.93507 3.94363 6.85712 4.09315 6.83801 4.25531L6.83334 4.33331V6.33331H4.83334C4.66342 6.3335 4.49999 6.39857 4.37643 6.51521C4.25287 6.63186 4.17852 6.79128 4.16856 6.96091C4.1586 7.13054 4.21379 7.29757 4.32285 7.42787C4.43191 7.55817 4.58661 7.64191 4.75534 7.66198L4.83334 7.66665H6.83334V9.66665C6.83353 9.83657 6.8986 10 7.01524 10.1236C7.13189 10.2471 7.29131 10.3215 7.46094 10.3314C7.63057 10.3414 7.7976 10.2862 7.9279 10.1771C8.0582 10.0681 8.14194 9.91338 8.16201 9.74465L8.16668 9.66665V7.66665H10.1667C10.3366 7.66646 10.5 7.60139 10.6236 7.48475C10.7471 7.3681 10.8215 7.20868 10.8315 7.03905C10.8414 6.86942 10.7862 6.70239 10.6772 6.57209C10.5681 6.44179 10.4134 6.35805 10.2447 6.33798L10.1667 6.33331H8.16668V4.33331C8.16668 4.1565 8.09644 3.98693 7.97141 3.86191C7.84639 3.73688 7.67682 3.66665 7.50001 3.66665Z" fill="#007AFF"/>
</svg>
